<svg width="25" height="24" viewBox="0 0 25 24" fill="none" xmlns="http://www.w3.org/2000/svg">
<path d="M14.2 2.92V11.23C14.2 12.25 13.37 13.08 12.35 13.08H3.19995C2.64995 13.08 2.19995 12.63 2.19995 12.08V5.69C2.19995 3.65 3.84995 2 5.88995 2H13.27C13.79 2 14.2 2.41 14.2 2.92Z" fill="#414651"/>
<path d="M21.7 15.5C21.98 15.5 22.2 15.72 22.2 16V17C22.2 18.66 20.86 20 19.2 20C19.2 18.35 17.85 17 16.2 17C14.55 17 13.2 18.35 13.2 20H11.2C11.2 18.35 9.84995 17 8.19995 17C6.54995 17 5.19995 18.35 5.19995 20C3.53995 20 2.19995 18.66 2.19995 17V15C2.19995 14.45 2.64995 14 3.19995 14H12.7C14.08 14 15.2 12.88 15.2 11.5V6C15.2 5.45 15.65 5 16.2 5H17.04C17.76 5 18.42 5.39 18.78 6.01L19.42 7.13C19.51 7.29 19.39 7.5 19.2 7.5C17.82 7.5 16.7 8.62 16.7 10V13C16.7 14.38 17.82 15.5 19.2 15.5H21.7Z" fill="#414651"/>
<path d="M8.19995 22C9.30452 22 10.2 21.1046 10.2 20C10.2 18.8954 9.30452 18 8.19995 18C7.09538 18 6.19995 18.8954 6.19995 20C6.19995 21.1046 7.09538 22 8.19995 22Z" fill="#414651"/>
<path d="M16.2 22C17.3045 22 18.2 21.1046 18.2 20C18.2 18.8954 17.3045 18 16.2 18C15.0954 18 14.2 18.8954 14.2 20C14.2 21.1046 15.0954 22 16.2 22Z" fill="#414651"/>
<path d="M22.2 12.53V14H19.2C18.65 14 18.2 13.55 18.2 13V10C18.2 9.45 18.65 9 19.2 9H20.49L21.94 11.54C22.11 11.84 22.2 12.18 22.2 12.53Z" fill="#414651"/>
</svg>
