<svg width="25" height="24" viewBox="0 0 25 24" fill="none" xmlns="http://www.w3.org/2000/svg">
<path d="M22.8 12.6201V14.6801C22.8 15.2401 22.34 15.7001 21.77 15.7001H19.84C18.76 15.7001 17.77 14.9101 17.68 13.8301C17.62 13.2001 17.86 12.6101 18.28 12.2001C18.65 11.8201 19.16 11.6001 19.72 11.6001H21.77C22.34 11.6001 22.8 12.0601 22.8 12.6201Z" fill="#414651"/>
<path d="M16.18 13.9599C16.09 12.9099 16.47 11.8799 17.23 11.1299C17.87 10.4799 18.76 10.0999 19.72 10.0999H20.29C20.57 10.0999 20.8 9.8699 20.76 9.5899C20.49 7.6499 18.81 6.1499 16.8 6.1499H6.79999C4.58999 6.1499 2.79999 7.9399 2.79999 10.1499V17.1499C2.79999 19.3599 4.58999 21.1499 6.79999 21.1499H16.8C18.82 21.1499 20.49 19.6499 20.76 17.7099C20.8 17.4299 20.57 17.1999 20.29 17.1999H19.84C17.94 17.1999 16.34 15.7799 16.18 13.9599ZM13.8 11.8999H7.79999C7.38999 11.8999 7.04999 11.5699 7.04999 11.1499C7.04999 10.7299 7.38999 10.3999 7.79999 10.3999H13.8C14.21 10.3999 14.55 10.7399 14.55 11.1499C14.55 11.5599 14.21 11.8999 13.8 11.8999Z" fill="#414651"/>
<path d="M15.01 3.9801C15.27 4.2501 15.04 4.6501 14.66 4.6501H6.83002C5.74002 4.6501 4.72002 4.9701 3.87002 5.5201C3.48002 5.7701 2.95002 5.5001 3.14002 5.0701C3.70002 3.7601 5.01002 2.8501 6.52002 2.8501H12.14C13.3 2.8501 14.33 3.2601 15.01 3.9801Z" fill="white"/>
</svg>
