<svg width="25" height="24" viewBox="0 0 25 24" fill="none" xmlns="http://www.w3.org/2000/svg">
<path d="M21.85 9.14993C19.54 5.51993 16.16 3.42993 12.6 3.42993C10.82 3.42993 9.08998 3.94993 7.50998 4.91993C5.92998 5.89993 4.50998 7.32993 3.34998 9.14993C2.34998 10.7199 2.34998 13.2699 3.34998 14.8399C5.65998 18.4799 9.03998 20.5599 12.6 20.5599C14.38 20.5599 16.11 20.0399 17.69 19.0699C19.27 18.0899 20.69 16.6599 21.85 14.8399C22.85 13.2799 22.85 10.7199 21.85 9.14993ZM12.6 16.0399C10.36 16.0399 8.55998 14.2299 8.55998 11.9999C8.55998 9.76993 10.36 7.95993 12.6 7.95993C14.84 7.95993 16.64 9.76993 16.64 11.9999C16.64 14.2299 14.84 16.0399 12.6 16.0399Z" fill="#414651"/>
<path d="M12.6 9.13989C11.03 9.13989 9.75 10.4199 9.75 11.9999C9.75 13.5699 11.03 14.8499 12.6 14.8499C14.17 14.8499 15.46 13.5699 15.46 11.9999C15.46 10.4299 14.17 9.13989 12.6 9.13989Z" fill="#414651"/>
</svg>
