<svg width="983" height="151" viewBox="0 0 983 151" fill="none" xmlns="http://www.w3.org/2000/svg">
<path d="M28.0857 12.1281C14.0429 12.1281 14.0429 0 0 0V150.474H983V77.5334C967.787 77.5334 968.957 81.9948 954.914 81.9948C940.871 81.9948 940.871 69.3252 926.829 69.3252C912.786 69.3252 915.126 73.2236 898.743 73.2236C882.359 73.2236 887.04 80.5221 870.657 80.5221C854.274 80.5221 857.785 77.7499 842.571 77.7499C827.358 77.7499 830.284 64.539 814.486 64.539C798.688 64.539 802.783 68.8488 786.4 68.8488C770.017 68.8488 772.942 74.7829 758.314 74.7829C743.686 74.7829 746.027 55.0747 730.229 55.0747C714.43 55.0747 716.186 61.8968 702.143 61.8968C688.1 61.8968 690.44 52.3459 674.057 52.3459C657.674 52.3459 661.185 58.4532 645.971 58.4532C630.758 58.4532 633.099 33.4823 617.886 33.4823C602.673 33.4823 605.598 40.4343 589.8 40.4343C574.002 40.4343 578.098 45.0257 561.714 45.0257C545.331 45.0257 549.427 33.1141 533.629 33.1141C517.83 33.1141 521.926 38.9616 505.543 38.9616C489.16 38.9616 492.085 29.3241 477.457 29.3241C462.829 29.3241 464.585 13.211 449.371 13.211C434.158 13.211 436.499 40.1744 421.286 40.1744C406.073 40.1744 407.828 21.2892 393.2 21.2892C378.572 21.2892 381.498 29.5623 365.114 29.5623C348.731 29.5623 352.242 36.9908 337.029 36.9908C321.815 36.9908 323.571 24.6894 308.943 24.6894C294.315 24.6894 295.485 36.3844 280.857 36.3844C266.229 36.3844 267.985 31.1866 252.771 31.1866C237.558 31.1866 239.899 20.4662 224.686 20.4662C209.473 20.4662 211.813 24.7544 196.6 24.7544C181.387 24.7544 182.557 9.09609 168.514 9.09609C154.471 9.09609 156.812 30.5585 140.429 30.5585C124.045 30.5585 128.141 15.9831 112.343 15.9831C96.5446 15.9831 98.8851 21.9822 84.2571 21.9822C69.6292 21.9822 70.7994 7.03864 56.1714 7.03864C41.5435 7.03864 42.1286 12.1281 28.0857 12.1281Z" fill="black"/>
</svg>
