<svg width="985" height="84" viewBox="0 0 985 84" fill="none" xmlns="http://www.w3.org/2000/svg">
<path d="M1 1C15.0429 1 15.0429 13.1281 29.0857 13.1281C43.1286 13.1281 42.5435 8.03864 57.1714 8.03864C71.7994 8.03864 70.6292 22.9822 85.2571 22.9822C99.8851 22.9822 97.5446 16.9831 113.343 16.9831C129.141 16.9831 125.045 31.5585 141.429 31.5585C157.812 31.5585 155.471 10.0961 169.514 10.0961C183.557 10.0961 182.387 25.7544 197.6 25.7544C212.813 25.7544 210.473 21.4662 225.686 21.4662C240.899 21.4662 238.558 32.1866 253.771 32.1866C268.985 32.1866 267.229 37.3844 281.857 37.3844C296.485 37.3844 295.315 25.6894 309.943 25.6894C324.571 25.6894 322.815 37.9908 338.029 37.9908C353.242 37.9908 349.731 30.5623 366.114 30.5623C382.498 30.5623 379.572 22.2892 394.2 22.2892C408.828 22.2892 407.073 41.1744 422.286 41.1744C437.499 41.1744 435.158 14.211 450.371 14.211C465.585 14.211 463.829 30.3241 478.457 30.3241C493.085 30.3241 490.16 39.9616 506.543 39.9616C522.926 39.9616 518.83 34.1141 534.629 34.1141C550.427 34.1141 546.331 46.0257 562.714 46.0257C579.098 46.0257 575.002 41.4343 590.8 41.4343C606.598 41.4343 603.673 34.4823 618.886 34.4823C634.099 34.4823 631.758 59.4532 646.971 59.4532C662.185 59.4532 658.674 53.3459 675.057 53.3459C691.44 53.3459 689.1 62.8968 703.143 62.8968C717.186 62.8968 715.43 56.0747 731.229 56.0747C747.027 56.0747 744.686 75.7829 759.314 75.7829C773.942 75.7829 771.017 69.8488 787.4 69.8488C803.783 69.8488 799.687 65.539 815.486 65.539C831.284 65.539 828.358 78.75 843.571 78.75C858.785 78.75 855.274 81.5221 871.657 81.5221C888.04 81.5221 883.36 74.2236 899.743 74.2236C916.126 74.2236 913.786 70.3252 927.829 70.3252C941.871 70.3252 941.871 82.9948 955.914 82.9948C969.957 82.9948 968.787 78.5334 984 78.5334" stroke="#2970FF" stroke-width="2" stroke-linecap="round" stroke-linejoin="round"/>
</svg>
