<svg width="985" height="45" viewBox="0 0 985 45" fill="none" xmlns="http://www.w3.org/2000/svg">
<path d="M1 1C15.0429 1 15.0429 6.39309 29.0857 6.39309C43.1286 6.39309 42.5435 7.10634 57.1714 7.10634C71.7994 7.10634 70.6292 10.775 85.2571 10.775C99.8851 10.775 97.5446 8.10733 113.343 8.10733C129.141 8.10733 125.045 14.5887 141.429 14.5887C157.812 14.5887 155.471 9.50945 169.514 9.50945C183.557 9.50945 182.387 12.0077 197.6 12.0077C212.813 12.0077 210.473 10.1008 225.686 10.1008C240.899 10.1008 238.558 14.868 253.771 14.868C268.985 14.868 267.229 17.1793 281.857 17.1793C296.485 17.1793 295.315 11.9788 309.943 11.9788C324.571 11.9788 322.815 5.54325 338.029 5.54325C353.242 5.54325 349.731 14.1457 366.114 14.1457C382.498 14.1457 379.572 10.4668 394.2 10.4668C408.828 10.4668 411.272 12.4516 422.286 12.9118C433.24 13.3695 435.158 12.8275 450.371 12.8275C465.585 12.8275 463.829 14.0397 478.457 14.0397C493.085 14.0397 490.16 18.3253 506.543 18.3253C522.926 18.3253 518.83 15.7251 534.629 15.7251C550.427 15.7251 546.331 21.0219 562.714 21.0219C579.098 21.0219 575.002 18.9802 590.8 18.9802C606.598 18.9802 603.673 15.8888 618.886 15.8888C634.099 15.8888 631.758 21.0399 646.971 21.0399C662.185 21.0399 658.674 24.277 675.057 24.277C691.44 24.277 692.7 25.2763 703.143 28.524C715.308 32.3075 715.43 43.349 731.229 43.349C747.027 43.349 747.876 36.5593 759.314 34.2542C770.042 32.0922 771.017 31.6154 787.4 31.6154C803.783 31.6154 799.687 29.699 815.486 29.699C831.284 29.699 828.358 35.5736 843.571 35.5736C858.785 35.5736 855.274 36.8063 871.657 36.8063C888.04 36.8063 883.36 33.5608 899.743 33.5608C916.126 33.5608 913.786 31.8273 927.829 31.8273C941.871 31.8273 941.871 37.4612 955.914 37.4612C969.957 37.4612 968.787 35.4773 984 35.4773" stroke="#87E3AA" stroke-width="2" stroke-linecap="round" stroke-linejoin="round"/>
</svg>
