<svg width="19" height="15" viewBox="0 0 19 15" fill="none" xmlns="http://www.w3.org/2000/svg">
<path fill-rule="evenodd" clip-rule="evenodd" d="M0 7.49996C0 9.03745 0.398435 9.55401 1.19531 10.5899C2.78623 12.6562 5.45434 14.9999 9.37495 14.9999C13.2956 14.9999 15.9637 12.6562 17.5546 10.5899C18.3515 9.55495 18.7499 9.03651 18.7499 7.49996C18.7499 5.96247 18.3515 5.44591 17.5546 4.40998C15.9637 2.34374 13.2956 0 9.37495 0C5.45434 0 2.78623 2.34374 1.19531 4.40998C0.398435 5.44685 0 5.9634 0 7.49996ZM9.37495 3.98435C8.44255 3.98435 7.54834 4.35475 6.88904 5.01405C6.22974 5.67335 5.85934 6.56756 5.85934 7.49996C5.85934 8.43236 6.22974 9.32656 6.88904 9.98587C7.54834 10.6452 8.44255 11.0156 9.37495 11.0156C10.3073 11.0156 11.2016 10.6452 11.8609 9.98587C12.5202 9.32656 12.8906 8.43236 12.8906 7.49996C12.8906 6.56756 12.5202 5.67335 11.8609 5.01405C11.2016 4.35475 10.3073 3.98435 9.37495 3.98435Z" fill="#A1A1AA"/>
</svg>
