<svg width="80" height="80" viewBox="0 0 80 80" fill="none" xmlns="http://www.w3.org/2000/svg">
<path d="M40.1434 40C40.1434 21.0072 33.8351 9.20863 26.9534 0C30.3302 2.9902 32.8813 4.87566 35.846 6.61298C38.496 8.16584 41.7908 8.16584 44.4407 6.61298C47.4054 4.87566 49.9566 2.9902 53.3333 0C46.4516 9.20863 40.1434 21.0072 40.1434 40Z" fill="white"/>
<path d="M40.1434 40C40.1434 58.9928 33.8351 70.7914 26.9534 80C30.3302 77.0098 32.8813 75.1244 35.846 73.387C38.496 71.8342 41.7908 71.8342 44.4407 73.387C47.4054 75.1244 49.9566 77.0098 53.3333 80C46.4516 70.7914 40.1434 58.9928 40.1434 40Z" fill="white"/>
<path d="M40.1434 40C59.0681 40 70.8244 33.6691 80 26.7626C77.0205 30.1515 75.1418 32.7118 73.4107 35.6872C71.8634 38.3467 71.8634 41.6533 73.4107 44.3128C75.1418 47.2882 77.0205 49.8485 80 53.2374C70.8244 46.3309 59.0681 40 40.1434 40Z" fill="white"/>
<path d="M39.8566 40C20.9319 40 9.17563 33.6691 0 26.7626C2.97948 30.1515 4.85818 32.7118 6.58927 35.6872C8.13657 38.3467 8.13657 41.6533 6.58927 44.3128C4.85818 47.2882 2.97949 49.8485 1.1531e-06 53.2374C9.17563 46.3309 20.9319 40 39.8566 40Z" fill="white"/>
<path d="M40.1014 40.1017C53.4832 26.6718 57.3355 13.8523 58.9576 2.45721C59.2385 6.96791 59.714 10.1116 60.5863 13.4439C61.366 16.4225 63.6957 18.7607 66.6636 19.5432C69.9841 20.4186 73.1165 20.8958 77.611 21.1777C66.2567 22.8056 53.4832 26.6718 40.1014 40.1017Z" fill="white"/>
<path d="M40.1014 40.1017C26.7196 53.5317 13.946 57.3979 2.59177 59.0258C7.08631 59.3077 10.2187 59.7849 13.5391 60.6603C16.507 61.4428 18.8368 63.781 19.6165 66.7596C20.4888 70.0919 20.9643 73.2356 21.2452 77.7463C22.8672 66.3512 26.7196 53.5317 40.1014 40.1017Z" fill="white"/>
<path d="M40.1014 40.1017C53.4832 53.5317 66.2567 57.3979 77.611 59.0257C73.1165 59.3077 69.9841 59.7849 66.6636 60.6603C63.6957 61.4428 61.366 63.781 60.5863 66.7595C59.714 70.0919 59.2385 73.2356 58.9576 77.7463C57.3355 66.3512 53.4832 53.5317 40.1014 40.1017Z" fill="white"/>
<path d="M39.8986 39.8983C26.5168 26.4683 22.6645 13.6488 21.0425 2.25372C20.7615 6.76443 20.286 9.90808 19.4137 13.2405C18.6341 16.219 16.3043 18.5572 13.3364 19.3397C10.0159 20.2151 6.88356 20.6923 2.38903 20.9743C13.7433 22.6021 26.5168 26.4683 39.8986 39.8983Z" fill="white"/>
<path d="M79.7133 4.89209C79.7133 7.43498 77.6592 9.4964 75.1255 9.4964C72.5917 9.4964 70.5376 7.43498 70.5376 4.89209C70.5376 2.34919 72.5917 0.28777 75.1255 0.28777C77.6592 0.28777 79.7133 2.34919 79.7133 4.89209Z" fill="white"/>
</svg>
