<svg width="22" height="22" viewBox="0 0 22 22" fill="none" xmlns="http://www.w3.org/2000/svg">
<path d="M17.1876 8.90075V8.2545C17.1876 4.70792 14.4156 1.83325 11.0001 1.83325C7.58456 1.83325 4.81256 4.70792 4.81256 8.2545V8.90075C4.81366 9.67218 4.59351 10.4277 4.17822 11.0778L3.16256 12.6591C2.23581 14.1028 2.94347 16.0654 4.55589 16.5219C8.76899 17.7163 13.2311 17.7163 17.4442 16.5219C19.0566 16.0654 19.7643 14.1028 18.8376 12.66L17.8219 11.0788C17.4063 10.4288 17.1858 9.67318 17.1866 8.90167L17.1876 8.90075Z" stroke="#414651" stroke-width="1.375"/>
<path d="M6.875 17.4165C7.47542 19.0188 9.09517 20.1665 11 20.1665C12.9048 20.1665 14.5246 19.0188 15.125 17.4165" stroke="#414651" stroke-width="1.375" stroke-linecap="round"/>
</svg>
