<svg width="12" height="12" viewBox="0 0 12 12" fill="none" xmlns="http://www.w3.org/2000/svg">
  <path d="M2.86969 8C2.92469 7.755 2.82469 7.405 2.64969 7.23L1.43469 6.015C1.05469 5.635 0.904685 5.23 1.01469 4.88C1.12969 4.53 1.48469 4.29 2.01469 4.2L3.57469 3.94C3.79969 3.9 4.07469 3.7 4.17969 3.495L5.03969 1.77C5.28969 1.275 5.62969 1 5.99969 1C6.36969 1 6.70969 1.275 6.95969 1.77L7.81969 3.495C7.88469 3.625 8.01969 3.75 8.16469 3.835L2.77969 9.22C2.70969 9.29 2.58969 9.225 2.60969 9.125L2.86969 8Z" fill="#2970FF"/>
  <path d="M9.22039 10.8249L8.92824 10.4192C8.89964 10.4398 8.85539 10.4599 8.77039 10.4599C8.63478 10.4599 8.42348 10.4071 8.14018 10.2397C8.14004 10.2397 8.1399 10.2396 8.13976 10.2395L6.67569 9.37004L6.6757 9.37004L6.67349 9.36874C6.46286 9.24511 6.21707 9.1987 6.00039 9.1987C5.78371 9.1987 5.53792 9.24511 5.32729 9.36874L5.32729 9.36874L5.32509 9.37004L3.86146 10.2392C3.5701 10.4096 3.3726 10.4575 3.24725 10.4602L8.95894 4.7485C9.07669 4.63076 9.23878 4.5812 9.38939 4.60751L9.3924 4.60801L9.89668 4.69289C9.89679 4.69291 9.8969 4.69293 9.897 4.69295C10.3351 4.76742 10.4705 4.93499 10.5043 5.03293C10.5332 5.13011 10.5204 5.34782 10.2068 5.66139L10.2061 5.66212L8.99684 6.8764C8.99669 6.87654 8.99654 6.87669 8.99639 6.87684C8.83276 7.04067 8.72701 7.25329 8.66979 7.45264C8.61303 7.65042 8.58907 7.88746 8.64373 8.11471L8.98803 9.61667L8.98833 9.61795C9.12178 10.1932 8.98002 10.3816 8.92669 10.4203L9.22039 10.8249ZM9.22039 10.8249C9.09539 10.9149 8.94539 10.9599 8.77039 10.9599C8.51539 10.9599 8.21539 10.8649 7.88539 10.6699L9.47539 9.50495C9.62039 10.1299 9.53039 10.5999 9.22039 10.8249Z" fill="#2970FF" stroke="#2970FF"/>
</svg>
