<svg width="21" height="20" viewBox="0 0 21 20" fill="none" xmlns="http://www.w3.org/2000/svg">
<path d="M13.8337 0.833313C14.0547 0.833313 14.2666 0.92111 14.4229 1.07739C14.5792 1.23367 14.667 1.44563 14.667 1.66665V2.49998H18.8337V7.49998H17.1512L19.4395 13.7875C19.6026 14.2105 19.6777 14.6623 19.6602 15.1153C19.6427 15.5683 19.533 16.013 19.3378 16.4221C19.1426 16.8313 18.866 17.1963 18.5248 17.4949C18.1837 17.7935 17.7853 18.0194 17.3539 18.1587C16.9225 18.2981 16.4672 18.3479 16.0158 18.3053C15.5645 18.2626 15.1266 18.1284 14.7289 17.9107C14.3313 17.6931 13.9822 17.3966 13.703 17.0394C13.4238 16.6822 13.2205 16.2718 13.1053 15.8333H9.56199C9.3726 16.5647 8.94048 17.2101 8.3364 17.6638C7.73232 18.1176 6.99209 18.3527 6.2369 18.3309C5.48171 18.309 4.75633 18.0313 4.17954 17.5434C3.60275 17.0554 3.20873 16.3861 3.06199 15.645C2.79193 15.5039 2.56571 15.2915 2.40792 15.0309C2.25013 14.7702 2.1668 14.4713 2.16699 14.1666V5.83331C2.16699 5.6123 2.25479 5.40034 2.41107 5.24406C2.56735 5.08778 2.77931 4.99998 3.00033 4.99998H8.83366C9.05467 4.99998 9.26663 5.08778 9.42291 5.24406C9.5792 5.40034 9.66699 5.6123 9.66699 5.83331V9.99998C9.66699 10.221 9.75479 10.433 9.91107 10.5892C10.0674 10.7455 10.2793 10.8333 10.5003 10.8333H12.167C12.388 10.8333 12.6 10.7455 12.7562 10.5892C12.9125 10.433 13.0003 10.221 13.0003 9.99998V2.49998H10.5003V0.833313H13.8337ZM16.3337 13.3333C15.9792 13.3334 15.6341 13.4465 15.3483 13.6562C15.0625 13.8658 14.851 14.1611 14.7445 14.4992C14.638 14.8372 14.6421 15.2004 14.756 15.536C14.87 15.8716 15.088 16.1621 15.3784 16.3654C15.6687 16.5686 16.0163 16.674 16.3707 16.6662C16.725 16.6585 17.0677 16.538 17.3488 16.3222C17.63 16.1064 17.8351 15.8066 17.9343 15.4663C18.0334 15.1261 18.0215 14.763 17.9003 14.43L17.8862 14.3933C17.7641 14.0809 17.5506 13.8127 17.2736 13.6235C16.9966 13.4344 16.669 13.3333 16.3337 13.3333ZM6.33366 13.3333C5.89163 13.3333 5.46771 13.5089 5.15515 13.8215C4.84259 14.134 4.66699 14.558 4.66699 15C4.66699 15.442 4.84259 15.8659 5.15515 16.1785C5.46771 16.4911 5.89163 16.6666 6.33366 16.6666C6.77569 16.6666 7.19961 16.4911 7.51217 16.1785C7.82473 15.8659 8.00033 15.442 8.00033 15C8.00033 14.558 7.82473 14.134 7.51217 13.8215C7.19961 13.5089 6.77569 13.3333 6.33366 13.3333ZM8.00033 6.66665H3.83366V8.33331H8.00033V6.66665ZM17.167 4.16665H14.667V5.83331H17.167V4.16665Z" fill="white"/>
</svg>
